<svg width="176" height="88" viewBox="0 0 176 88" fill="none" xmlns="http://www.w3.org/2000/svg">
  <path d="m109.1 128.5 14 118.9-42.2-37-8.3 23.2-30.4-22.3-55.5 66.6 4.2-90.2-75.3 15.7 74.4-77-14.2-112.2 50.4 32.5L52 26.3l23 31.1 67.7-31.1-33.7 102.2Z" fill="#FFD100"/>
  <path d="m26.2 46.7 25.9-20.4v37L26.2 46.8Z" fill="#FFC500"/>
  <path d="M75 57.5 52.1 26.3v37l4.2 2.8L75 57.5Z" fill="#FFED85"/>
  <path d="m56.3 128.5-40 25 25.3-80.7 14.7 55.7Z" fill="#FF9E00"/>
  <path d="m41.6 72.8 101.2-46.5-86.5 102.2-14.7-55.7Z" fill="#FFAF00"/>
  <path d="m-24.2 14.2 80.5 52-14.7 6.6-65.8-58.6Z" fill="#FFDC00"/>
  <path d="m41.6 72.8-126 130.6 100.8-49.9 25.2-80.7Z" fill="#FFC500"/>
</svg>
